<mxfile host="app.diagrams.net" modified="2022-01-17T06:56:14.258Z" agent="5.0 (Windows NT 10.0; Win64; x64) AppleWebKit/537.36 (KHTML, like Gecko) Chrome/96.0.4664.110 Safari/537.36" etag="-DJUdJNtcyJAvpHKgkpY" version="16.2.4" type="github">
  <diagram id="gFjYSwrSERhMv7Xi0AEe" name="第 1 页">
    <mxGraphModel dx="1329" dy="762" grid="1" gridSize="10" guides="1" tooltips="1" connect="1" arrows="1" fold="1" page="1" pageScale="1" pageWidth="1169" pageHeight="827" math="0" shadow="0">
      <root>
        <mxCell id="0" />
        <mxCell id="1" parent="0" />
        <mxCell id="W_twcHSUgssiMBfu7XOb-1" value="controler" style="swimlane;fontStyle=1;align=center;verticalAlign=top;childLayout=stackLayout;horizontal=1;startSize=26;horizontalStack=0;resizeParent=1;resizeParentMax=0;resizeLast=0;collapsible=1;marginBottom=0;" vertex="1" parent="1">
          <mxGeometry x="60" y="130" width="160" height="140" as="geometry" />
        </mxCell>
        <mxCell id="W_twcHSUgssiMBfu7XOb-2" value="sessionManager" style="text;strokeColor=none;fillColor=none;align=left;verticalAlign=top;spacingLeft=4;spacingRight=4;overflow=hidden;rotatable=0;points=[[0,0.5],[1,0.5]];portConstraint=eastwest;" vertex="1" parent="W_twcHSUgssiMBfu7XOb-1">
          <mxGeometry y="26" width="160" height="26" as="geometry" />
        </mxCell>
        <mxCell id="W_twcHSUgssiMBfu7XOb-3" value="" style="line;strokeWidth=1;fillColor=none;align=left;verticalAlign=middle;spacingTop=-1;spacingLeft=3;spacingRight=3;rotatable=0;labelPosition=right;points=[];portConstraint=eastwest;" vertex="1" parent="W_twcHSUgssiMBfu7XOb-1">
          <mxGeometry y="52" width="160" height="8" as="geometry" />
        </mxCell>
        <mxCell id="W_twcHSUgssiMBfu7XOb-4" value="messageProxy&#xa;deviceModuleManager" style="text;strokeColor=none;fillColor=none;align=left;verticalAlign=top;spacingLeft=4;spacingRight=4;overflow=hidden;rotatable=0;points=[[0,0.5],[1,0.5]];portConstraint=eastwest;" vertex="1" parent="W_twcHSUgssiMBfu7XOb-1">
          <mxGeometry y="60" width="160" height="80" as="geometry" />
        </mxCell>
        <mxCell id="W_twcHSUgssiMBfu7XOb-5" value="Session" style="swimlane;fontStyle=1;align=center;verticalAlign=top;childLayout=stackLayout;horizontal=1;startSize=26;horizontalStack=0;resizeParent=1;resizeParentMax=0;resizeLast=0;collapsible=1;marginBottom=0;" vertex="1" parent="1">
          <mxGeometry x="830" y="122" width="160" height="130" as="geometry" />
        </mxCell>
        <mxCell id="W_twcHSUgssiMBfu7XOb-6" value="webrtcConntion" style="text;strokeColor=none;fillColor=none;align=left;verticalAlign=top;spacingLeft=4;spacingRight=4;overflow=hidden;rotatable=0;points=[[0,0.5],[1,0.5]];portConstraint=eastwest;" vertex="1" parent="W_twcHSUgssiMBfu7XOb-5">
          <mxGeometry y="26" width="160" height="26" as="geometry" />
        </mxCell>
        <mxCell id="W_twcHSUgssiMBfu7XOb-7" value="" style="line;strokeWidth=1;fillColor=none;align=left;verticalAlign=middle;spacingTop=-1;spacingLeft=3;spacingRight=3;rotatable=0;labelPosition=right;points=[];portConstraint=eastwest;" vertex="1" parent="W_twcHSUgssiMBfu7XOb-5">
          <mxGeometry y="52" width="160" height="8" as="geometry" />
        </mxCell>
        <mxCell id="W_twcHSUgssiMBfu7XOb-8" value="FsmState&#xa;remarkDataStream " style="text;strokeColor=none;fillColor=none;align=left;verticalAlign=top;spacingLeft=4;spacingRight=4;overflow=hidden;rotatable=0;points=[[0,0.5],[1,0.5]];portConstraint=eastwest;" vertex="1" parent="W_twcHSUgssiMBfu7XOb-5">
          <mxGeometry y="60" width="160" height="70" as="geometry" />
        </mxCell>
        <mxCell id="W_twcHSUgssiMBfu7XOb-20" value="SessionManager" style="swimlane;fontStyle=1;align=center;verticalAlign=top;childLayout=stackLayout;horizontal=1;startSize=26;horizontalStack=0;resizeParent=1;resizeParentMax=0;resizeLast=0;collapsible=1;marginBottom=0;" vertex="1" parent="1">
          <mxGeometry x="320" y="130" width="330" height="130" as="geometry" />
        </mxCell>
        <mxCell id="W_twcHSUgssiMBfu7XOb-21" value="map&lt;sessionId, Session&gt;  sessions;&#xa;&#xa;" style="text;strokeColor=none;fillColor=none;align=left;verticalAlign=top;spacingLeft=4;spacingRight=4;overflow=hidden;rotatable=0;points=[[0,0.5],[1,0.5]];portConstraint=eastwest;" vertex="1" parent="W_twcHSUgssiMBfu7XOb-20">
          <mxGeometry y="26" width="330" height="44" as="geometry" />
        </mxCell>
        <mxCell id="W_twcHSUgssiMBfu7XOb-22" value="" style="line;strokeWidth=1;fillColor=none;align=left;verticalAlign=middle;spacingTop=-1;spacingLeft=3;spacingRight=3;rotatable=0;labelPosition=right;points=[];portConstraint=eastwest;" vertex="1" parent="W_twcHSUgssiMBfu7XOb-20">
          <mxGeometry y="70" width="330" height="8" as="geometry" />
        </mxCell>
        <mxCell id="W_twcHSUgssiMBfu7XOb-23" value=" createSession(SessionId)&#xa; releaseSession(SessionId)&#xa; getSession(SessionId)&#xa; " style="text;strokeColor=none;fillColor=none;align=left;verticalAlign=top;spacingLeft=4;spacingRight=4;overflow=hidden;rotatable=0;points=[[0,0.5],[1,0.5]];portConstraint=eastwest;" vertex="1" parent="W_twcHSUgssiMBfu7XOb-20">
          <mxGeometry y="78" width="330" height="52" as="geometry" />
        </mxCell>
        <mxCell id="W_twcHSUgssiMBfu7XOb-29" style="edgeStyle=orthogonalEdgeStyle;rounded=0;orthogonalLoop=1;jettySize=auto;html=1;exitX=1;exitY=0.5;exitDx=0;exitDy=0;" edge="1" parent="1" source="W_twcHSUgssiMBfu7XOb-2">
          <mxGeometry relative="1" as="geometry">
            <mxPoint x="310" y="169" as="targetPoint" />
          </mxGeometry>
        </mxCell>
        <mxCell id="W_twcHSUgssiMBfu7XOb-32" value="MessageProxy" style="swimlane;fontStyle=1;align=center;verticalAlign=top;childLayout=stackLayout;horizontal=1;startSize=26;horizontalStack=0;resizeParent=1;resizeParentMax=0;resizeLast=0;collapsible=1;marginBottom=0;" vertex="1" parent="1">
          <mxGeometry x="320" y="270" width="330" height="190" as="geometry" />
        </mxCell>
        <mxCell id="W_twcHSUgssiMBfu7XOb-33" value="sendInnerMessage(Moudle, messageType);&#xa;sendInnerMessage(Moudle, messageType,  message);&#xa;sendExternMessage(message);&#xa;send10msAudioFrame(message);&#xa;receveMediaVideoFrame(message);" style="text;strokeColor=none;fillColor=none;align=left;verticalAlign=top;spacingLeft=4;spacingRight=4;overflow=hidden;rotatable=0;points=[[0,0.5],[1,0.5]];portConstraint=eastwest;" vertex="1" parent="W_twcHSUgssiMBfu7XOb-32">
          <mxGeometry y="26" width="330" height="74" as="geometry" />
        </mxCell>
        <mxCell id="W_twcHSUgssiMBfu7XOb-34" value="" style="line;strokeWidth=1;fillColor=none;align=left;verticalAlign=middle;spacingTop=-1;spacingLeft=3;spacingRight=3;rotatable=0;labelPosition=right;points=[];portConstraint=eastwest;" vertex="1" parent="W_twcHSUgssiMBfu7XOb-32">
          <mxGeometry y="100" width="330" height="40" as="geometry" />
        </mxCell>
        <mxCell id="W_twcHSUgssiMBfu7XOb-35" value=" createSession(SessionId)&#xa; releaseSession(SessionId)&#xa; getSession(SessionId)&#xa; " style="text;strokeColor=none;fillColor=none;align=left;verticalAlign=top;spacingLeft=4;spacingRight=4;overflow=hidden;rotatable=0;points=[[0,0.5],[1,0.5]];portConstraint=eastwest;" vertex="1" parent="W_twcHSUgssiMBfu7XOb-32">
          <mxGeometry y="140" width="330" height="50" as="geometry" />
        </mxCell>
        <mxCell id="W_twcHSUgssiMBfu7XOb-36" style="edgeStyle=orthogonalEdgeStyle;rounded=0;orthogonalLoop=1;jettySize=auto;html=1;exitX=1;exitY=0.5;exitDx=0;exitDy=0;entryX=-0.009;entryY=0.851;entryDx=0;entryDy=0;entryPerimeter=0;" edge="1" parent="1" source="W_twcHSUgssiMBfu7XOb-4" target="W_twcHSUgssiMBfu7XOb-33">
          <mxGeometry relative="1" as="geometry" />
        </mxCell>
        <mxCell id="W_twcHSUgssiMBfu7XOb-37" value="webrtcConnection" style="swimlane;fontStyle=1;align=center;verticalAlign=top;childLayout=stackLayout;horizontal=1;startSize=26;horizontalStack=0;resizeParent=1;resizeParentMax=0;resizeLast=0;collapsible=1;marginBottom=0;" vertex="1" parent="1">
          <mxGeometry x="1180" y="122" width="160" height="260" as="geometry" />
        </mxCell>
        <mxCell id="W_twcHSUgssiMBfu7XOb-38" value="peerconnectionFactory&#xa;peerconnection&#xa;endcoder&#xa;videotrack" style="text;strokeColor=none;fillColor=none;align=left;verticalAlign=top;spacingLeft=4;spacingRight=4;overflow=hidden;rotatable=0;points=[[0,0.5],[1,0.5]];portConstraint=eastwest;" vertex="1" parent="W_twcHSUgssiMBfu7XOb-37">
          <mxGeometry y="26" width="160" height="104" as="geometry" />
        </mxCell>
        <mxCell id="W_twcHSUgssiMBfu7XOb-39" value="" style="line;strokeWidth=1;fillColor=none;align=left;verticalAlign=middle;spacingTop=-1;spacingLeft=3;spacingRight=3;rotatable=0;labelPosition=right;points=[];portConstraint=eastwest;" vertex="1" parent="W_twcHSUgssiMBfu7XOb-37">
          <mxGeometry y="130" width="160" height="8" as="geometry" />
        </mxCell>
        <mxCell id="W_twcHSUgssiMBfu7XOb-40" value="createSdpOffer&#xa;processSdpAnswer&#xa;onIcecandidate&#xa;processIcecandidate&#xa;sendVideoFrameToPeer&#xa;&#xa;onConnectionStateChanged" style="text;strokeColor=none;fillColor=none;align=left;verticalAlign=top;spacingLeft=4;spacingRight=4;overflow=hidden;rotatable=0;points=[[0,0.5],[1,0.5]];portConstraint=eastwest;" vertex="1" parent="W_twcHSUgssiMBfu7XOb-37">
          <mxGeometry y="138" width="160" height="122" as="geometry" />
        </mxCell>
        <mxCell id="W_twcHSUgssiMBfu7XOb-46" style="edgeStyle=orthogonalEdgeStyle;rounded=0;orthogonalLoop=1;jettySize=auto;html=1;" edge="1" parent="1" source="W_twcHSUgssiMBfu7XOb-21">
          <mxGeometry relative="1" as="geometry">
            <mxPoint x="790" y="178" as="targetPoint" />
          </mxGeometry>
        </mxCell>
        <mxCell id="W_twcHSUgssiMBfu7XOb-47" style="edgeStyle=orthogonalEdgeStyle;rounded=0;orthogonalLoop=1;jettySize=auto;html=1;" edge="1" parent="1" source="W_twcHSUgssiMBfu7XOb-6">
          <mxGeometry relative="1" as="geometry">
            <mxPoint x="1170" y="161" as="targetPoint" />
          </mxGeometry>
        </mxCell>
        <mxCell id="W_twcHSUgssiMBfu7XOb-49" value="deviceModuleManager" style="swimlane;fontStyle=0;childLayout=stackLayout;horizontal=1;startSize=26;fillColor=none;horizontalStack=0;resizeParent=1;resizeParentMax=0;resizeLast=0;collapsible=1;marginBottom=0;" vertex="1" parent="1">
          <mxGeometry x="320" y="490" width="330" height="104" as="geometry" />
        </mxCell>
        <mxCell id="W_twcHSUgssiMBfu7XOb-50" value="NetWorkModule" style="text;strokeColor=none;fillColor=none;align=left;verticalAlign=top;spacingLeft=4;spacingRight=4;overflow=hidden;rotatable=0;points=[[0,0.5],[1,0.5]];portConstraint=eastwest;" vertex="1" parent="W_twcHSUgssiMBfu7XOb-49">
          <mxGeometry y="26" width="330" height="26" as="geometry" />
        </mxCell>
        <mxCell id="W_twcHSUgssiMBfu7XOb-51" value="UIModule" style="text;strokeColor=none;fillColor=none;align=left;verticalAlign=top;spacingLeft=4;spacingRight=4;overflow=hidden;rotatable=0;points=[[0,0.5],[1,0.5]];portConstraint=eastwest;" vertex="1" parent="W_twcHSUgssiMBfu7XOb-49">
          <mxGeometry y="52" width="330" height="26" as="geometry" />
        </mxCell>
        <mxCell id="W_twcHSUgssiMBfu7XOb-52" value="MediaModule" style="text;strokeColor=none;fillColor=none;align=left;verticalAlign=top;spacingLeft=4;spacingRight=4;overflow=hidden;rotatable=0;points=[[0,0.5],[1,0.5]];portConstraint=eastwest;" vertex="1" parent="W_twcHSUgssiMBfu7XOb-49">
          <mxGeometry y="78" width="330" height="26" as="geometry" />
        </mxCell>
        <mxCell id="W_twcHSUgssiMBfu7XOb-54" style="edgeStyle=orthogonalEdgeStyle;rounded=0;orthogonalLoop=1;jettySize=auto;html=1;exitX=1;exitY=0.5;exitDx=0;exitDy=0;entryX=0;entryY=0.5;entryDx=0;entryDy=0;" edge="1" parent="1" source="W_twcHSUgssiMBfu7XOb-4" target="W_twcHSUgssiMBfu7XOb-51">
          <mxGeometry relative="1" as="geometry" />
        </mxCell>
        <mxCell id="W_twcHSUgssiMBfu7XOb-56" style="edgeStyle=orthogonalEdgeStyle;rounded=0;orthogonalLoop=1;jettySize=auto;html=1;exitX=1;exitY=0.5;exitDx=0;exitDy=0;entryX=0;entryY=0.5;entryDx=0;entryDy=0;" edge="1" parent="1" source="W_twcHSUgssiMBfu7XOb-55" target="W_twcHSUgssiMBfu7XOb-50">
          <mxGeometry relative="1" as="geometry" />
        </mxCell>
        <mxCell id="W_twcHSUgssiMBfu7XOb-55" value="deviceModule" style="html=1;" vertex="1" parent="1">
          <mxGeometry x="20" y="504" width="200" height="50" as="geometry" />
        </mxCell>
      </root>
    </mxGraphModel>
  </diagram>
</mxfile>
